<svg width="64" height="64" viewBox="0 0 320 320" fill="none" xmlns="http://www.w3.org/2000/svg">
  <rect x="90" y="90" width="140" height="100" rx="36" stroke="#222" stroke-width="10" fill="none"/>
  <rect x="120" y="75" width="80" height="20" rx="8" stroke="#222" stroke-width="10" fill="none"/>
  <path d="M160 75 L160 60" stroke="#222" stroke-width="10" stroke-linecap="round"/>
  <path d="M160 20 L160 60" stroke="#222" stroke-width="10"/>
  <path d="M110 40 L160 60" stroke="#222" stroke-width="10"/>
  <path d="M210 40 L160 60" stroke="#222" stroke-width="10"/>
  <path d="M90 80 L160 60" stroke="#222" stroke-width="10"/>
  <path d="M230 80 L160 60" stroke="#222" stroke-width="10"/>
  <path d="M60 140 Q60 40 160 20 Q260 40 260 140" stroke="#222" stroke-width="10" fill="none"/>
  <path d="M110 190 Q90 240 160 240 Q230 240 210 190" stroke="#222" stroke-width="10" fill="none"/>
  <path d="M120 220 Q140 200 160 240 Q180 200 200 220" stroke="#222" stroke-width="10" fill="none"/>
</svg>
